<svg xmlns="http://www.w3.org/2000/svg" viewBox="0 0 111.69 135.29"><g id="Layer_2" data-name="Layer 2"><g id="Layer_5_copy" data-name="Layer 5 copy"><path d="M8.92,129.06c2.47.36,6.14.37.28.23,2.07.05,4.17.39,6.24.49,7,.35,14-.07,20.94-.41,1.17-.3,2.43-.7,2.83-.8,3.33-.86,6.59-1.94,9.82-3.09,6.68-2.38,13.25-5.11,20.14-6.82a62.51,62.51,0,0,1,25.34-1.41V56.86A20.2,20.2,0,0,1,81.25,46.51l-1.66-2.15-2-4.78c-.1-.52-.19-1-.3-1.58H30.74a21.58,21.58,0,0,1-8.43,11.46h0c-.52.65-2.18,3.1-.52.4h0l0,0-.54.83c-.11.15-.2.3-.31.46-.85,5.29-3.06,10.1-4.62,15.21,0,.11-.31,1.41-.52,2.28,0,.83-.08,1.84-.08,2.1,0,.74,0,1.47,0,2.21a19.22,19.22,0,0,1,.44,3.32c.08.22.14.45.21.67-.05-.63,0-.48,0,.1.09.32.18.64.26,1a20.24,20.24,0,0,1,1.45,3.53c1.84,6.12-.07,11.3-2.43,16.8-1.64,3.83-5.16,6.54-9.17,8.11v19.9A20.57,20.57,0,0,1,8.92,129.06Z" style="fill:#f5f2ca"/><path d="M8.52,130.51c.83.11,1.67.21,2.51.27.27,0,.55.05.83.06s.85.11.09,0l.4-2.95c-1,0-2.1-.06-3.15-.08-1.93-.05-1.92,2.93,0,3,2.91.1,5.78.51,8.69.58s5.84,0,8.76-.06,5.84-.25,8.75-.39a32.23,32.23,0,0,0,7.37-1.79c10.81-3.23,21-8.25,32.23-10.17a58.16,58.16,0,0,1,19.12-.26A1.52,1.52,0,0,0,96,117.25V56.86a1.52,1.52,0,0,0-1.1-1.45,18.89,18.89,0,0,1-12.1-9.17c-.55-1-1.44-1.77-2-2.76-.29-.53-.49-1.15-.73-1.71l-.92-2.2a7.87,7.87,0,0,1-.46-2,1.52,1.52,0,0,0-1.45-1.1H30.74a1.54,1.54,0,0,0-1.45,1.1,19.3,19.3,0,0,1-4.87,8.11c-1,1-2.25,1.75-3.22,2.75a9,9,0,0,0-.79,1l-.41.54,2.51.66h0l-.15,1.15a9.08,9.08,0,0,1,.72-1.24C24,49.1,22,47.72,20.72,48.8a5,5,0,0,0-1.34,2.43c-.3,1.41-.6,2.81-1,4.2-.79,2.69-1.79,5.31-2.7,8a22.58,22.58,0,0,0-1.46,6.38,21.57,21.57,0,0,0,0,3.41,26.72,26.72,0,0,0,.68,4.19c.47,1.56,3.08,1.35,3-.4,0-.13,0-.27,0-.4h-3A12.74,12.74,0,0,0,16,80.12a16.56,16.56,0,0,1,1.25,4.58,19.74,19.74,0,0,1-1.17,8.57c-.86,2.55-1.8,5.33-3.59,7.4A16.69,16.69,0,0,1,6.12,105,1.56,1.56,0,0,0,5,106.47V125c0,.42,0,.85,0,1.26.13,1.38,1.8,2.46,2.61,3.53,1.16,1.51,3.76,0,2.59-1.51a25.91,25.91,0,0,0-2.63-3L8,126.37v-19.9l-1.1,1.45a20.4,20.4,0,0,0,7.2-4.6c2.2-2.27,3.34-5.12,4.43-8a24.56,24.56,0,0,0,1.79-9.5,18.8,18.8,0,0,0-.9-5C19,79.37,18,78,17.84,76.57c-.22-1.86-3-2-3,0,0,.13,0,.27,0,.4l3-.4a20.88,20.88,0,0,1-.61-6.64,20.53,20.53,0,0,1,1.37-5.75c.78-2.29,1.64-4.55,2.36-6.86.39-1.23.74-2.47,1-3.73.18-.8.2-2.08.88-2.67L20.49,49.1c-.42.68-1.13,1.56-.87,2.41a1.52,1.52,0,0,0,2.51.66c.46-.42,1-1.38,1.23-1.64.55-.54,1.3-1,1.88-1.48a23,23,0,0,0,7-10.65l-1.45,1.1H77.28l-1.45-1.1a23.83,23.83,0,0,0,1.65,4.77,19.77,19.77,0,0,0,.79,1.89c.65,1.16,1.62,2.18,2.32,3.33A21.88,21.88,0,0,0,94.12,58.3L93,56.86v60.39l1.9-1.44c-11.37-1.84-22.78,0-33.61,3.63-5.44,1.84-10.76,4-16.21,5.81-2.45.81-4.93,1.47-7.41,2.2-2.73.8-5.76.65-8.6.77-3.24.13-6.49.22-9.73.18-3.4,0-6.76-.5-10.15-.61v3c1.05,0,2.1.08,3.15.08,1.63,0,2.11-2.66.4-3-1.13-.19-2.3-.15-3.44-.3a1.55,1.55,0,0,0-1.84,1A1.51,1.51,0,0,0,8.52,130.51Z" style="fill:#f5f2cb"/><path d="M14,115.74c26.21-20.49,15.8-71,45.54-70.2,9.86.25,14.4,4,14.4,4a33.79,33.79,0,0,1,9.2,1.16c4.28,1.3,4.93,3.5,4.93,3.5S76.92,57,75.1,59.15s-3.5,3.63-4.66,10.24c-2.25,12.74,11.3,32.52,16,44.09.39,1,.76,2,1.11,2.93h13.11V41.66h8.88L54.75,0,0,41.66H8.1v74.75h5.28A8.05,8.05,0,0,1,14,115.74Z" style="fill:#f48120;fill-rule:evenodd"/><path d="M74.82,48.18c.26-.91,10-5.18,9.72-10.37s-6.35-6.35-6.35-6.35S83,24.71,75,22.51s-16.21,5.83-16.21,5.83S52.12,25,48.62,30.42s-5.9,19.38-5.9,19.38C52.41,40.78,64.05,42.5,74.82,48.18Z" style="fill:#71444a;fill-rule:evenodd"/><path d="M76.8,59.68c-8.41,9.94-4.61,30.09,7.81,30.22,7.57.08,9.28-12.84,3-17.2C82.26,69,75.83,68.94,76.8,59.68Z" style="fill:#71444a;fill-rule:evenodd"/><path d="M64.79,57.72a3.53,3.53,0,1,0-3.56-3.53A3.55,3.55,0,0,0,64.79,57.72Z" style="fill:#404041;fill-rule:evenodd"/><path d="M65.76,55.35A1.34,1.34,0,1,0,64.41,54,1.34,1.34,0,0,0,65.76,55.35Z" style="fill:#fff;fill-rule:evenodd"/><path d="M18.08,127a4.83,4.83,0,0,1-2.2,3.7,4.92,4.92,0,0,1-4.55-.07,12.37,12.37,0,0,1-6-6.36,19.15,19.15,0,0,1-1.57-10c.34-3.6,1.34-5.75,3-6.68s3.63-.76,5.95.28a17.11,17.11,0,0,1,3.11,1.92,1.49,1.49,0,0,0,.36.21.74.74,0,0,0,.42,0,.46.46,0,0,1,.35-.05l1.15.31a.44.44,0,0,1,.36.51c-.11,1.56-.21,3.11-.32,4.67,0,.26-.15.37-.41.3l-.9-.24a1,1,0,0,1-.57-.33,4.52,4.52,0,0,1-.36-1c-.67-2.46-1.67-3.93-3-4.52a1.88,1.88,0,0,0-1.91,0,4.94,4.94,0,0,0-1.26,2.68A29.39,29.39,0,0,0,9,116.83a28.44,28.44,0,0,0,.22,8.22A5.18,5.18,0,0,0,12.05,129c1.76.73,3-.25,3.74-2.73C16.55,126.54,17.32,126.8,18.08,127Z" style="fill:#fff"/><path d="M30.54,119.34,30,131.18a.69.69,0,0,0,.53.71c.24.09.36.2.36.36l0,.45q0,.23-.39.27a44,44,0,0,1-4.58.3c-.21,0-.32-.07-.31-.21l0-.47c0-.14.13-.28.38-.4a.92.92,0,0,0,.62-.79c.1-1.91.19-3.82.29-5.73-1.12,0-2.23,0-3.35,0l-.33,5.72a.82.82,0,0,0,.52.81c.24.13.36.26.35.42l0,.45c0,.15-.14.22-.4.21a35.85,35.85,0,0,1-4.58-.51c-.22,0-.32-.13-.31-.27l0-.47c0-.14.14-.25.41-.33a.73.73,0,0,0,.6-.68l.75-11.81a.94.94,0,0,0-.5-.86c-.24-.16-.35-.32-.34-.48l0-.44c0-.15.14-.2.38-.16a33.92,33.92,0,0,0,4.47.48c.21,0,.31.08.3.22l0,.46c0,.15-.14.29-.39.39a.87.87,0,0,0-.59.75l-.27,4.7c1.11.07,2.23.08,3.34,0,.08-1.57.16-3.14.25-4.71a.76.76,0,0,0-.52-.75c-.25-.11-.36-.25-.36-.41l0-.44c0-.15.13-.23.38-.23a41.59,41.59,0,0,0,4.45-.31c.21,0,.31,0,.31.17l0,.46c0,.16-.13.31-.37.46A1,1,0,0,0,30.54,119.34Z" style="fill:#fff"/><path d="M36.23,130.14a.6.6,0,0,0,.53.65c.25.05.37.16.37.31l0,.45c0,.15-.13.26-.39.32-1.53.35-3.06.65-4.58.88-.22,0-.32,0-.32-.16l0-.47c0-.15.14-.3.4-.46a1.07,1.07,0,0,0,.59-.86L33.31,119a.64.64,0,0,0-.51-.68q-.37-.12-.36-.36l0-.44c0-.15.13-.24.38-.28,1.49-.23,3-.53,4.46-.88.22,0,.32,0,.31.13v.46c0,.16-.14.32-.39.5a1.16,1.16,0,0,0-.57.9Q36.43,124.22,36.23,130.14Z" style="fill:#fff"/><path d="M49,124.27a6.15,6.15,0,0,1-1.38,3.41,6.62,6.62,0,0,1-3.12,2.15c-1.83.61-3.27.37-4.33-.66s-1.55-2.87-1.47-5.47a12.25,12.25,0,0,1,1.75-6.35A7.75,7.75,0,0,1,44.55,114a6.15,6.15,0,0,1,2.23-.29.84.84,0,0,0,.26,0,1.07,1.07,0,0,0,.29-.23.61.61,0,0,1,.24-.19l.82-.3c.18-.07.27,0,.27.19,0,1.09,0,2.17,0,3.26a.37.37,0,0,1-.28.38l-.63.23c-.2.07-.34.09-.41,0a1.38,1.38,0,0,1-.28-.49c-.56-1.33-1.32-1.83-2.27-1.51a2.46,2.46,0,0,0-1.32,1,7.19,7.19,0,0,0-.76,2.49,23.93,23.93,0,0,0-.32,3.44,15.36,15.36,0,0,0,.48,5.28,1.49,1.49,0,0,0,2.11,1q1.86-.63,2.47-3.62Z" style="fill:#fff"/><path d="M54.23,116.7c1-1.79,2-3.59,3-5.38a1.19,1.19,0,0,0,.17-.53q0-.15-.36-.18c-.25,0-.37-.1-.37-.24V110c0-.18.12-.32.37-.41,1.4-.56,2.81-1.11,4.22-1.65.29-.11.44-.08.44.1v.39a.45.45,0,0,1-.11.31,4.49,4.49,0,0,1-.51.4,7.19,7.19,0,0,0-2.18,2.33c-.75,1.33-1.49,2.67-2.25,4q1.81,2.91,3.67,5.8a1.78,1.78,0,0,0,1.43.78c.34,0,.5.14.51.31v.33q0,.28-.45.45-2.44.93-4.88,1.89c-.32.12-.47.09-.47-.11v-.31a.83.83,0,0,1,.3-.55c.38-.33.56-.57.56-.71a.48.48,0,0,0-.09-.27c-1-1.58-2-3.15-3-4.74l0,5.91c0,.33.19.52.56.55s.38.11.38.25v.45c0,.15-.13.27-.38.37q-2.3.9-4.59,1.76c-.21.09-.32.06-.32-.08v-.47q0-.23.39-.54a1.36,1.36,0,0,0,.57-1q0-5.88.11-11.76a.51.51,0,0,0-.54-.56c-.25,0-.37-.12-.37-.27v-.44c0-.15.13-.27.37-.37,1.49-.56,3-1.14,4.47-1.72.21-.09.31-.06.31.08V111c0,.15-.12.33-.37.55a1.3,1.3,0,0,0-.55,1C54.24,113.89,54.24,115.3,54.23,116.7Z" style="fill:#fff"/><path d="M67.09,114.11c0,1.74.06,3.47.1,5.21,0,.35.19.54.57.58s.38.12.39.27v.44c0,.15-.13.27-.38.36-1.53.51-3.06,1.06-4.59,1.63-.21.08-.32.05-.32-.09v-.46c0-.15.13-.32.38-.54a1.3,1.3,0,0,0,.55-1q-.07-5.85-.16-11.7c0-.33-.18-.52-.55-.56s-.38-.1-.38-.26v-.44c0-.15.12-.27.37-.36,1.29-.48,2.57-1,3.86-1.4,2.1-.72,3.73-.85,4.9-.43a2.56,2.56,0,0,1,1.82,2.52C73.74,110.68,71.55,112.58,67.09,114.11ZM67,107q.06,3,.11,5.94A8.78,8.78,0,0,0,69,112.1a2.72,2.72,0,0,0,.94-1.11,4.47,4.47,0,0,0,.31-2,3.6,3.6,0,0,0-.37-1.79,1.26,1.26,0,0,0-1-.56A5.55,5.55,0,0,0,67,107Z" style="fill:#fff"/><path d="M85.51,117.21a53,53,0,0,0-10.07,1.51c-.24,0-.36,0-.36-.15l0-.43c0-.14.15-.33.47-.58a.92.92,0,0,0,.4-.8q-.2-5.83-.4-11.65a.63.63,0,0,0-.55-.64c-.25,0-.37-.15-.37-.3l0-.47c0-.13.11-.22.34-.28a54,54,0,0,1,7.35-1.3L83,102l.62-.08c.32,0,.48,0,.49.15,0,1,.09,1.93.14,2.89,0,.15,0,.24-.05.27a.88.88,0,0,1-.37.07l-.53,0c-.23,0-.36-.06-.4-.24a3.12,3.12,0,0,0-.63-1.26,1.84,1.84,0,0,0-1.67-.34c-.6.08-1.2.18-1.8.29.07,1.85.15,3.7.22,5.56l.67-.11a1.76,1.76,0,0,0,.84-.3,3,3,0,0,0,.54-1.1,1.57,1.57,0,0,1,.14-.32.64.64,0,0,1,.26-.06l.64-.08c.25,0,.38,0,.38.21l.18,3.7c0,.16-.11.25-.34.27l-.67.08a.47.47,0,0,1-.31,0,1.32,1.32,0,0,1-.25-.43c-.2-.44-.4-.7-.6-.77a1.8,1.8,0,0,0-.85,0l-.58.1c.08,2.07.16,4.15.25,6.22.66-.12,1.32-.22,2-.31a2.82,2.82,0,0,0,1.51-.53,5.93,5.93,0,0,0,1-2,.55.55,0,0,1,.51-.4l.63,0c.24,0,.37.06.37.22C85.39,114.85,85.45,116,85.51,117.21Z" style="fill:#fff"/><path d="M90.36,104l-.18-.68c-.05-.22-.08-.35-.09-.37s.07-.12.21-.15c.79-.17,1.58-.32,2.38-.44h.12a.3.3,0,0,1,.27.22q2.39,7.05,4.85,14.37a2,2,0,0,0,.3.61,3.08,3.08,0,0,0,.62.54c.23.17.35.31.36.43l0,.44c0,.16-.07.2-.26.14a33.14,33.14,0,0,0-4.91-1.33c-.27,0-.4-.15-.41-.31l0-.43q0-.23.45-.3c.37-.06.55-.21.53-.45a1.24,1.24,0,0,0,0-.23l-.75-2.18a35.52,35.52,0,0,0-3.81-.51l-.5,1.94a.82.82,0,0,0,0,.18c0,.2.24.43.69.7.29.18.44.33.45.44l0,.44c0,.16-.13.22-.42.2-1-.08-2-.12-3.07-.12-.34,0-.52-.07-.53-.23l0-.51c0-.14.09-.25.3-.34a1.22,1.22,0,0,0,.75-.83Q89,109.56,90.36,104Zm1.19,3.28q-.6,2.42-1.21,4.88c1,.09,2,.22,3,.4Z" style="fill:#fff"/><path d="M101.78,120.26l-.74-.33q-.36-.15-.39-.42c-.09-1.24-.19-2.49-.28-3.73q0-.37.36-.21l.63.27a.88.88,0,0,1,.34.27,5.94,5.94,0,0,1,.28.89,6.4,6.4,0,0,0,3,4c.75.43,1.31.58,1.7.41s.55-.54.5-1.17a5.58,5.58,0,0,0-.84-2.24,31.19,31.19,0,0,0-2.8-3.78c-1-1.25-1.8-2.13-2.26-2.72a9.7,9.7,0,0,1-1.11-1.78,5,5,0,0,1-.51-1.79,2,2,0,0,1,1-2.19,3.08,3.08,0,0,1,2.83.41,9.3,9.3,0,0,1,1.71,1.33,5.36,5.36,0,0,0,.56.49.86.86,0,0,0,.3.12,1.67,1.67,0,0,1,.43.23l.53.37a.91.91,0,0,1,.44.57l.3,3.3c0,.17-.09.18-.3,0l-.66-.46a1.25,1.25,0,0,1-.35-.33,7,7,0,0,1-.34-.91,6,6,0,0,0-2.39-3.51,1.43,1.43,0,0,0-1.27-.24.78.78,0,0,0-.4.85,4.29,4.29,0,0,0,.7,1.78,35.88,35.88,0,0,0,2.5,3.32,33.44,33.44,0,0,1,3.35,4.91,9.19,9.19,0,0,1,1.11,3.28c.12,1.27-.27,1.91-1.17,2a6,6,0,0,1-3.38-1.08c-.59-.35-1.3-.84-2.12-1.45a3.63,3.63,0,0,0-.56-.38.92.92,0,0,0-.37-.08A.65.65,0,0,1,101.78,120.26Z" style="fill:#fff"/><path d="M18.08,127a4.83,4.83,0,0,1-2.2,3.7,4.92,4.92,0,0,1-4.55-.07,12.37,12.37,0,0,1-6-6.36,19.15,19.15,0,0,1-1.57-10c.34-3.6,1.34-5.75,3-6.68s3.63-.76,5.95.28a17.11,17.11,0,0,1,3.11,1.92,1.49,1.49,0,0,0,.36.21.74.74,0,0,0,.42,0,.46.46,0,0,1,.35-.05c.39.11.77.22,1.15.31a.44.44,0,0,1,.36.51c-.11,1.56-.21,3.11-.32,4.67,0,.26-.15.37-.41.3l-.9-.24a1,1,0,0,1-.57-.33,4.52,4.52,0,0,1-.36-1c-.67-2.46-1.67-3.93-3-4.52a1.88,1.88,0,0,0-1.91,0,4.94,4.94,0,0,0-1.26,2.68A29.39,29.39,0,0,0,9,116.83a28.44,28.44,0,0,0,.22,8.22A5.18,5.18,0,0,0,12.05,129c1.76.73,3-.25,3.74-2.73C16.55,126.54,17.32,126.8,18.08,127Z" style="fill:none;stroke:#f5f2ca;stroke-width:4.038342184140815px"/><path d="M30.54,119.34,30,131.18a.69.69,0,0,0,.53.71c.24.09.36.2.36.36l0,.45q0,.23-.39.27a44,44,0,0,1-4.58.3c-.21,0-.32-.07-.31-.21l0-.47c0-.14.13-.28.38-.4a.92.92,0,0,0,.62-.79c.1-1.91.19-3.82.29-5.73-1.12,0-2.23,0-3.35,0l-.33,5.72a.82.82,0,0,0,.52.81c.24.13.36.26.35.42l0,.45c0,.15-.14.22-.4.21a35.85,35.85,0,0,1-4.58-.51c-.22,0-.32-.13-.31-.27l0-.47c0-.14.14-.25.41-.32a.75.75,0,0,0,.6-.69l.75-11.81a.94.94,0,0,0-.5-.86c-.24-.16-.35-.32-.34-.48l0-.43c0-.16.14-.21.38-.17a33.92,33.92,0,0,0,4.47.48c.21,0,.31.08.3.22l0,.46c0,.15-.14.29-.39.39a.87.87,0,0,0-.59.75l-.27,4.7c1.11.07,2.23.08,3.34,0,.08-1.57.16-3.14.25-4.71a.76.76,0,0,0-.52-.75c-.25-.11-.36-.25-.36-.41l0-.44c0-.15.13-.23.38-.23a41.59,41.59,0,0,0,4.45-.31c.21,0,.31,0,.31.17l0,.46c0,.16-.13.31-.37.46A1,1,0,0,0,30.54,119.34Z" style="fill:none;stroke:#f5f2ca;stroke-width:4.038342184140815px"/><path d="M36.23,130.14a.6.6,0,0,0,.53.65c.25.05.37.16.37.31l0,.45c0,.15-.13.26-.39.32-1.53.35-3.06.65-4.58.88-.22,0-.32,0-.32-.16l0-.47c0-.15.14-.3.4-.46a1.07,1.07,0,0,0,.59-.86L33.31,119a.64.64,0,0,0-.51-.68q-.37-.12-.36-.36l0-.44c0-.15.13-.24.38-.28,1.49-.23,3-.53,4.46-.88.22,0,.32,0,.31.13v.46c0,.16-.14.32-.39.5a1.16,1.16,0,0,0-.57.9Q36.43,124.22,36.23,130.14Z" style="fill:none;stroke:#f5f2ca;stroke-width:4.038342184140815px"/><path d="M49,124.27a6.15,6.15,0,0,1-1.38,3.41,6.62,6.62,0,0,1-3.12,2.15c-1.83.61-3.27.37-4.33-.66s-1.55-2.87-1.47-5.47a12.25,12.25,0,0,1,1.75-6.35A7.75,7.75,0,0,1,44.55,114a6.15,6.15,0,0,1,2.23-.29.84.84,0,0,0,.26,0,1.07,1.07,0,0,0,.29-.23.61.61,0,0,1,.24-.19l.82-.3c.18-.07.27,0,.27.19,0,1.09,0,2.17,0,3.26a.37.37,0,0,1-.28.38l-.63.23c-.2.07-.34.09-.41,0a1.38,1.38,0,0,1-.28-.49c-.56-1.33-1.32-1.83-2.27-1.51a2.46,2.46,0,0,0-1.32,1,7.19,7.19,0,0,0-.76,2.49,23.93,23.93,0,0,0-.32,3.44,15.36,15.36,0,0,0,.48,5.28,1.49,1.49,0,0,0,2.11,1q1.86-.63,2.47-3.62Z" style="fill:none;stroke:#f5f2ca;stroke-width:4.038342184140815px"/><path d="M54.23,116.71l3-5.39a1.19,1.19,0,0,0,.17-.53q0-.15-.36-.18c-.25,0-.37-.1-.37-.24V110c0-.18.12-.32.37-.41,1.4-.56,2.81-1.11,4.22-1.65.29-.11.44-.08.44.1v.39a.45.45,0,0,1-.11.31,4.49,4.49,0,0,1-.51.4,7.19,7.19,0,0,0-2.18,2.33c-.75,1.33-1.49,2.67-2.25,4,1.21,1.94,2.43,3.87,3.67,5.81a1.8,1.8,0,0,0,1.43.77c.34,0,.5.14.51.31v.33q0,.28-.45.45c-1.63.62-3.26,1.26-4.88,1.89-.32.12-.47.09-.47-.11v-.31a.83.83,0,0,1,.3-.55c.38-.33.56-.57.56-.71a.48.48,0,0,0-.09-.27c-1-1.58-2-3.15-3-4.74l0,5.91c0,.33.19.52.56.55s.38.11.38.25v.45c0,.15-.13.28-.38.37q-2.3.9-4.59,1.76c-.21.09-.32.06-.32-.08v-.47q0-.23.39-.54a1.36,1.36,0,0,0,.57-1q0-5.88.11-11.76a.51.51,0,0,0-.54-.56c-.25,0-.37-.12-.37-.27v-.44c0-.15.13-.27.37-.37,1.49-.56,3-1.14,4.47-1.72.21-.09.31-.06.31.08V111c0,.15-.12.33-.37.55a1.3,1.3,0,0,0-.55,1C54.24,113.89,54.24,115.3,54.23,116.71Z" style="fill:none;stroke:#f5f2ca;stroke-width:4.038342184140815px"/><path d="M67.09,114.11c0,1.74.06,3.47.1,5.21,0,.35.19.54.57.58s.38.12.39.27v.44c0,.15-.13.27-.38.36-1.53.51-3.06,1.06-4.59,1.63-.21.08-.32.05-.32-.09v-.46c0-.15.13-.33.38-.54a1.3,1.3,0,0,0,.55-1q-.07-5.85-.16-11.7c0-.33-.18-.52-.55-.56s-.38-.1-.38-.26v-.44c0-.15.12-.27.37-.36,1.29-.48,2.57-1,3.86-1.4,2.1-.72,3.73-.85,4.9-.43a2.56,2.56,0,0,1,1.82,2.52C73.74,110.68,71.55,112.58,67.09,114.11ZM67,107q.06,3,.11,5.94A8.78,8.78,0,0,0,69,112.1a2.72,2.72,0,0,0,.94-1.11,4.47,4.47,0,0,0,.31-2,3.6,3.6,0,0,0-.37-1.79,1.26,1.26,0,0,0-1-.56A5.55,5.55,0,0,0,67,107Z" style="fill:none;stroke:#f5f2ca;stroke-width:4.038342184140815px"/><path d="M85.51,117.21a53,53,0,0,0-10.07,1.51c-.24,0-.36,0-.36-.15l0-.43c0-.14.15-.33.47-.58a.92.92,0,0,0,.4-.8q-.2-5.83-.4-11.65a.63.63,0,0,0-.55-.64c-.25,0-.37-.15-.37-.3l0-.47c0-.13.11-.22.34-.28a54,54,0,0,1,7.35-1.3L83,102l.62-.08c.32,0,.48,0,.49.15,0,1,.09,1.93.14,2.89,0,.15,0,.24-.05.27a.74.74,0,0,1-.37.07l-.53,0c-.23,0-.36-.06-.4-.24a3.12,3.12,0,0,0-.63-1.26,1.84,1.84,0,0,0-1.67-.34c-.6.08-1.2.18-1.8.29.07,1.85.15,3.7.22,5.56l.67-.11a1.76,1.76,0,0,0,.84-.3,3,3,0,0,0,.54-1.09,1.51,1.51,0,0,1,.14-.33.64.64,0,0,1,.26-.06l.64-.08c.25,0,.38,0,.38.21l.18,3.7c0,.16-.11.25-.34.27l-.67.08a.47.47,0,0,1-.31,0,1.32,1.32,0,0,1-.25-.43c-.2-.44-.4-.7-.6-.77a1.8,1.8,0,0,0-.85,0l-.58.1c.08,2.07.16,4.15.25,6.22.66-.12,1.32-.22,2-.31a2.74,2.74,0,0,0,1.51-.53,5.93,5.93,0,0,0,1-2,.55.55,0,0,1,.51-.4l.63,0c.24,0,.37.06.37.22C85.39,114.85,85.45,116,85.51,117.21Z" style="fill:none;stroke:#f5f2ca;stroke-width:4.038342184140815px"/><path d="M90.36,104l-.18-.68c-.05-.22-.08-.35-.09-.37s.07-.12.21-.15c.79-.17,1.58-.32,2.38-.44h.12a.31.31,0,0,1,.27.22q2.39,7.05,4.85,14.37a2,2,0,0,0,.3.61,3.08,3.08,0,0,0,.62.54c.23.17.35.31.36.43l0,.44c0,.16-.07.2-.26.14a33.14,33.14,0,0,0-4.91-1.33c-.27,0-.4-.15-.41-.31l0-.43q0-.23.45-.3c.37-.06.55-.21.53-.44a1.2,1.2,0,0,0,0-.24l-.75-2.18a35.52,35.52,0,0,0-3.81-.51l-.5,1.94a.82.82,0,0,0,0,.18c0,.2.24.43.69.7q.44.27.45.45l0,.43c0,.16-.13.22-.42.2-1-.08-2-.12-3.07-.12-.34,0-.52-.07-.53-.23l0-.51c0-.14.09-.25.3-.34a1.22,1.22,0,0,0,.75-.83Q89,109.56,90.36,104Zm1.19,3.28q-.6,2.42-1.21,4.88c1,.09,2,.22,3,.4Z" style="fill:none;stroke:#f5f2ca;stroke-width:4.038342184140815px"/><path d="M101.78,120.26l-.74-.33q-.36-.15-.39-.42c-.09-1.24-.19-2.49-.28-3.73q0-.37.36-.21l.63.27a.88.88,0,0,1,.34.27,6.41,6.41,0,0,1,.28.89,6.4,6.4,0,0,0,3,4c.75.43,1.31.58,1.7.41s.55-.54.5-1.17a5.58,5.58,0,0,0-.84-2.24,31.19,31.19,0,0,0-2.8-3.78c-1-1.25-1.8-2.13-2.26-2.72a9.7,9.7,0,0,1-1.11-1.78,5,5,0,0,1-.51-1.79,2,2,0,0,1,1-2.19,3.08,3.08,0,0,1,2.83.41,9.3,9.3,0,0,1,1.71,1.33,5.36,5.36,0,0,0,.56.49,1.14,1.14,0,0,0,.3.13,1.34,1.34,0,0,1,.43.22l.53.37a.91.91,0,0,1,.44.57l.3,3.3c0,.17-.09.18-.3,0l-.66-.46a1.25,1.25,0,0,1-.35-.33,7,7,0,0,1-.34-.91,6,6,0,0,0-2.39-3.51,1.43,1.43,0,0,0-1.27-.24.78.78,0,0,0-.4.85,4.24,4.24,0,0,0,.7,1.78,35.88,35.88,0,0,0,2.5,3.32,33.44,33.44,0,0,1,3.35,4.91,9.19,9.19,0,0,1,1.11,3.28c.12,1.27-.27,1.91-1.17,2a6,6,0,0,1-3.38-1.08c-.59-.35-1.3-.84-2.12-1.45a3.63,3.63,0,0,0-.56-.38.92.92,0,0,0-.37-.08A.65.65,0,0,1,101.78,120.26Z" style="fill:none;stroke:#f5f2ca;stroke-width:4.038342184140815px"/><path d="M18.08,126.6a4.24,4.24,0,0,1-2.2,3.36,5.15,5.15,0,0,1-4.55-.28,12.9,12.9,0,0,1-6-6.22,16.59,16.59,0,0,1-1.57-9.23c.34-3.24,1.34-5.11,3-5.88s3.63-.55,5.95.44a18.27,18.27,0,0,1,3.11,1.8,1.59,1.59,0,0,0,.36.19.72.72,0,0,0,.42,0,.46.46,0,0,1,.35,0l1.15.29a.41.41,0,0,1,.36.47c-.11,1.44-.21,2.89-.32,4.33,0,.24-.15.34-.41.27l-.9-.23a1,1,0,0,1-.57-.31,4.08,4.08,0,0,1-.36-.91c-.67-2.28-1.67-3.64-3-4.2a2,2,0,0,0-1.91-.07,4.18,4.18,0,0,0-1.26,2.4A24.42,24.42,0,0,0,9,116.88a24,24,0,0,0,.22,7.54,5.19,5.19,0,0,0,2.88,3.77c1.76.77,3-.09,3.74-2.37C16.55,126.11,17.32,126.37,18.08,126.6Z" style="fill:#42210b"/><path d="M30.54,119.45,30,130.71a.67.67,0,0,0,.53.69c.24.09.36.2.36.35l0,.42c0,.15-.14.24-.39.26a41.28,41.28,0,0,1-4.58.2c-.21,0-.32-.07-.31-.2l0-.44c0-.14.13-.27.38-.38a.85.85,0,0,0,.62-.73c.1-1.81.19-3.61.29-5.42-1.12,0-2.23,0-3.35-.07l-.33,5.37a.8.8,0,0,0,.52.77c.24.13.36.26.35.4l0,.42c0,.15-.14.21-.4.2a38.08,38.08,0,0,1-4.58-.61c-.22,0-.32-.13-.31-.26l0-.44c0-.13.14-.23.41-.29s.58-.31.6-.62l.75-11a.88.88,0,0,0-.5-.81c-.24-.14-.35-.29-.34-.44l0-.41c0-.14.14-.19.38-.15a33.82,33.82,0,0,0,4.47.44q.31,0,.3.21l0,.43c0,.14-.14.27-.39.37a.83.83,0,0,0-.59.7l-.27,4.42c1.11.07,2.23.09,3.34.06.08-1.48.16-3,.25-4.45a.73.73,0,0,0-.52-.71c-.25-.1-.36-.23-.36-.38l0-.41c0-.15.13-.22.38-.23a41.65,41.65,0,0,0,4.45-.34c.21,0,.31,0,.31.16l0,.44c0,.15-.13.29-.37.44A1,1,0,0,0,30.54,119.45Z" style="fill:#42210b"/><path d="M36.23,129.78a.59.59,0,0,0,.53.64c.25.05.37.15.37.3l0,.43c0,.15-.13.25-.39.31-1.53.32-3.06.59-4.58.78-.22,0-.32,0-.32-.15l0-.45c0-.14.14-.29.4-.43a1,1,0,0,0,.59-.83l.48-11.32a.61.61,0,0,0-.51-.64c-.25-.07-.37-.18-.36-.34l0-.42c0-.14.13-.23.38-.27,1.49-.25,3-.56,4.46-.92.22,0,.32,0,.31.13V117q0,.22-.39.48a1.15,1.15,0,0,0-.57.87C36.5,122.19,36.37,126,36.23,129.78Z" style="fill:#42210b"/><path d="M49,124.17a5.92,5.92,0,0,1-1.38,3.34,6.47,6.47,0,0,1-3.12,2.07,4.08,4.08,0,0,1-4.33-.7c-1.07-1-1.55-2.79-1.47-5.3a11.71,11.71,0,0,1,1.75-6.16,7.93,7.93,0,0,1,4.09-3.3,6.37,6.37,0,0,1,2.23-.32.59.59,0,0,0,.26,0,.82.82,0,0,0,.29-.22.76.76,0,0,1,.24-.2l.82-.3q.27-.11.27.18c0,1.08,0,2.15,0,3.22a.36.36,0,0,1-.28.37l-.63.23c-.2.08-.34.09-.41,0a1.21,1.21,0,0,1-.28-.48c-.56-1.29-1.32-1.77-2.27-1.44a2.49,2.49,0,0,0-1.32,1,6.79,6.79,0,0,0-.76,2.43,22.72,22.72,0,0,0-.32,3.35,14.67,14.67,0,0,0,.48,5.15,1.53,1.53,0,0,0,2.11,1c1.24-.4,2.06-1.58,2.47-3.53Z" style="fill:#42210b"/><path d="M54.23,116.7q1.5-2.69,3-5.39a1.16,1.16,0,0,0,.17-.52c0-.1-.12-.16-.36-.19s-.37-.1-.37-.24V110c0-.18.12-.32.37-.42,1.4-.56,2.81-1.13,4.22-1.68.29-.11.44-.08.44.1v.4a.42.42,0,0,1-.11.3,3.93,3.93,0,0,1-.51.42,7.12,7.12,0,0,0-2.18,2.34c-.75,1.34-1.49,2.68-2.25,4q1.81,2.91,3.67,5.87a1.83,1.83,0,0,0,1.43.81c.34,0,.5.15.51.33v.33q0,.28-.45.45c-1.63.58-3.26,1.18-4.88,1.78-.32.12-.47.08-.47-.12v-.31a.79.79,0,0,1,.3-.54c.38-.33.56-.56.56-.7a.49.49,0,0,0-.09-.28c-1-1.59-2-3.18-3-4.76l0,5.88c0,.33.19.52.56.56s.38.11.38.26v.44c0,.15-.13.28-.38.37-1.53.56-3.06,1.12-4.59,1.66-.21.08-.32,0-.32-.09v-.46c0-.15.14-.33.39-.53a1.31,1.31,0,0,0,.57-1q0-5.84.11-11.65a.51.51,0,0,0-.54-.55c-.25,0-.37-.11-.37-.26v-.43c0-.15.13-.27.37-.37,1.49-.57,3-1.17,4.47-1.76.21-.09.31-.06.31.08V111c0,.15-.12.33-.37.55a1.31,1.31,0,0,0-.55,1C54.24,113.89,54.24,115.29,54.23,116.7Z" style="fill:#42210b"/><path d="M67.09,114.19c0,1.77.06,3.55.1,5.32a.58.58,0,0,0,.57.61c.25,0,.38.13.39.28v.45c0,.16-.13.28-.38.36-1.53.48-3.06,1-4.59,1.53-.21.08-.32.05-.32-.09v-.47c0-.15.13-.33.38-.54a1.28,1.28,0,0,0,.55-1q-.07-5.94-.16-11.86a.53.53,0,0,0-.55-.57c-.25,0-.38-.1-.38-.26v-.44c0-.16.12-.28.37-.38,1.29-.49,2.57-1,3.86-1.42,2.1-.74,3.73-.87,4.9-.44a2.65,2.65,0,0,1,1.82,2.6C73.74,110.78,71.55,112.7,67.09,114.19ZM67,106.94q.06,3,.11,6.06a8.85,8.85,0,0,0,1.91-.83,2.78,2.78,0,0,0,.94-1.13,4.65,4.65,0,0,0,.31-2,3.72,3.72,0,0,0-.37-1.83,1.21,1.21,0,0,0-1-.58A5.31,5.31,0,0,0,67,106.94Z" style="fill:#42210b"/><path d="M85.51,117.82a52.52,52.52,0,0,0-10.07,1.3c-.24,0-.36,0-.36-.17l0-.45c0-.14.15-.33.47-.57a1,1,0,0,0,.4-.83q-.2-6-.4-12.07a.65.65,0,0,0-.55-.67c-.25,0-.37-.16-.37-.31l0-.49c0-.13.11-.23.34-.28a54.22,54.22,0,0,1,7.35-1.37l.76-.11.62-.09c.32,0,.48,0,.49.15,0,1,.09,2,.14,3,0,.16,0,.25-.05.29a1.09,1.09,0,0,1-.37.07l-.53,0c-.23,0-.36-.06-.4-.26a3.38,3.38,0,0,0-.63-1.32c-.29-.35-.84-.48-1.67-.36q-.9.13-1.8.3c.07,1.93.15,3.87.22,5.8l.67-.11a1.67,1.67,0,0,0,.84-.29,3.26,3.26,0,0,0,.54-1.15,2.13,2.13,0,0,1,.14-.34.88.88,0,0,1,.26-.06l.64-.07c.25,0,.38,0,.38.22l.18,3.88c0,.17-.11.26-.34.29l-.67.07a.52.52,0,0,1-.31,0,1.53,1.53,0,0,1-.25-.45c-.2-.47-.4-.74-.6-.82a1.66,1.66,0,0,0-.85,0l-.58.09c.08,2.16.16,4.33.25,6.49q1-.15,2-.27a2.6,2.6,0,0,0,1.51-.52,6.08,6.08,0,0,0,1-2.08.55.55,0,0,1,.51-.41l.63,0c.24,0,.37.08.37.25C85.39,115.33,85.45,116.58,85.51,117.82Z" style="fill:#42210b"/><path d="M90.36,103.87l-.18-.73q-.08-.35-.09-.39c0-.07.07-.13.21-.16.79-.2,1.58-.37,2.38-.51a.24.24,0,0,1,.12,0,.31.31,0,0,1,.27.23q2.39,7.51,4.85,15.39a2.2,2.2,0,0,0,.3.65,3.29,3.29,0,0,0,.62.58c.23.18.35.34.36.47l0,.47c0,.17-.07.22-.26.15a35,35,0,0,0-4.91-1.43c-.27-.06-.4-.17-.41-.33l0-.47c0-.16.14-.27.45-.31s.55-.22.53-.48a1.41,1.41,0,0,0,0-.25l-.75-2.34a38.46,38.46,0,0,0-3.81-.56c-.17.69-.33,1.37-.5,2.05a1.06,1.06,0,0,0,0,.2c0,.21.24.45.69.75q.44.29.45.48l0,.46c0,.17-.13.24-.42.21-1-.1-2-.16-3.07-.18-.34,0-.52-.09-.53-.26l0-.54c0-.14.09-.26.3-.35a1.24,1.24,0,0,0,.75-.87Q89,109.8,90.36,103.87Zm1.19,3.48c-.4,1.73-.8,3.47-1.21,5.2,1,.11,2,.25,3,.44Z" style="fill:#42210b"/><path d="M101.78,121.21l-.74-.34a.58.58,0,0,1-.39-.45c-.09-1.35-.19-2.7-.28-4,0-.27.1-.36.36-.24l.63.28a.81.81,0,0,1,.34.28,7.35,7.35,0,0,1,.28,1,6.63,6.63,0,0,0,3,4.31c.75.45,1.31.59,1.7.4s.55-.63.5-1.32a6.26,6.26,0,0,0-.84-2.42,31.76,31.76,0,0,0-2.8-4c-1-1.33-1.8-2.26-2.26-2.88a10.84,10.84,0,0,1-1.11-1.89,5.83,5.83,0,0,1-.51-1.93,2.35,2.35,0,0,1,1-2.42,2.84,2.84,0,0,1,2.83.3,8.23,8.23,0,0,1,1.71,1.34,6,6,0,0,0,.56.5.68.68,0,0,0,.3.11,1.51,1.51,0,0,1,.43.21l.53.37a.94.94,0,0,1,.44.59l.3,3.63c0,.18-.09.2-.3,0l-.66-.47a1.25,1.25,0,0,1-.35-.33,8.71,8.71,0,0,1-.34-1c-.58-1.88-1.37-3.13-2.39-3.71a1.29,1.29,0,0,0-1.27-.18.9.9,0,0,0-.4,1,4.83,4.83,0,0,0,.7,1.91,38.52,38.52,0,0,0,2.5,3.5,33.86,33.86,0,0,1,3.35,5.19,10.23,10.23,0,0,1,1.11,3.55c.12,1.39-.27,2.12-1.17,2.26a5.31,5.31,0,0,1-3.38-1,22.44,22.44,0,0,1-2.12-1.53,4.3,4.3,0,0,0-.56-.4.92.92,0,0,0-.37-.08A.65.65,0,0,1,101.78,121.21Z" style="fill:#42210b"/></g></g></svg>